<svg viewBox="0 0 64 64" xmlns="http://www.w3.org/2000/svg">
  <!-- Background circle for better visibility -->
  <circle cx="32" cy="32" r="30" fill="#1A5F7A" stroke="#154B5C" stroke-width="2" />
  
  <!-- Rocket ship centered in the icon, scaled smaller to fit completely -->
  <g transform="translate(32, 32) scale(0.18) translate(-100, -140)">
    <!-- Rocket Body -->
    <path d="M30,150 C30,60 80,20 100,0 C120,20 170,60 170,150 L170,180 C170,190 150,200 100,200 C50,200 30,190 30,180 L30,150 Z" fill="white" />
    
    <!-- Rocket Window -->
    <circle cx="100" cy="90" r="18" fill="#57C5B6" />
    <circle cx="100" cy="90" r="10" fill="white" />
    
    <!-- Rocket Fins -->
    <path d="M30,150 L10,175 L10,150 L30,135 Z" fill="#FF8C42" />
    <path d="M170,150 L190,175 L190,150 L170,135 Z" fill="#FF8C42" />
    
    <!-- Rocket Bottom -->
    <path d="M65,200 L65,220 L80,210 L100,220 L120,210 L135,220 L135,200 Z" fill="#FF8C42" />
    
    <!-- Rocket Flames -->
    <g>
      <path d="M75,220 C75,250 90,255 100,270 C110,255 125,250 125,220 Z" fill="#FF8C42" opacity="0.9" />
      <path d="M85,220 C85,240 95,245 100,255 C105,245 115,240 115,220 Z" fill="#FFC107" opacity="0.9" />
      <path d="M90,220 C90,235 95,240 100,245 C105,240 110,235 110,220 Z" fill="white" opacity="0.9" />
    </g>
  </g>
</svg>
