<svg viewBox="0 0 400 100" xmlns="http://www.w3.org/2000/svg">
  <!-- Rocket Icon -->
  <g transform="translate(10, 10)">
    <!-- Rocket Body -->
    <path d="M15,75 C15,30 40,10 50,0 C60,10 85,30 85,75 L85,90 C85,95 75,100 50,100 C25,100 15,95 15,90 L15,75 Z" fill="white" />
    
    <!-- Rocket Window -->
    <circle cx="50" cy="45" r="12" fill="#57C5B6" />
    <circle cx="50" cy="45" r="7" fill="#1A5F7A" />
    
    <!-- Rocket Fins -->
    <path d="M15,75 L0,90 L0,75 L15,65 Z" fill="#FF8C42" />
    <path d="M85,75 L100,90 L100,75 L85,65 Z" fill="#FF8C42" />
    
    <!-- Rocket Flames -->
    <path d="M35,100 C35,140 42,145 50,155 C58,145 65,140 65,100 Z" fill="#FF8C42" opacity="0.9" />
    <path d="M40,100 C40,135 45,140 50,147 C55,140 60,135 60,100 Z" fill="#FFC107" opacity="0.9" />
  </g>
  
  <!-- Text -->
  <g transform="translate(120, 30)">
    <text font-family="Arial, sans-serif" font-weight="bold" font-size="32" fill="white">
      <tspan x="0" y="0">Biz</tspan>
      <tspan x="50" y="0" fill="#57C5B6">Blasts</tspan>
    </text>
    <text font-family="Arial, sans-serif" font-size="8" fill="rgba(255,255,255,0.9)" x="0" y="15">
      Launch Your Service Business
    </text>
  </g>
</svg> 